<svg width="1024" height="1024" viewBox="0 0 1024 1024" xmlns="http://www.w3.org/2000/svg" preserveAspectRatio="xMidYMid meet"><rect x="0" y="0" width="1024" height="1024" fill="#111011"></rect><svg x="252" y="574" width="520" height="116" xmlns="http://www.w3.org/2000/svg" preserveAspectRatio="none"><svg version="1.1" xmlns="http://www.w3.org/2000/svg" style="display: block;" width="520" height="116" viewBox="216.76 53.71 1613.84 360.01" preserveAspectRatio="none"><g id="svg-group-9ad42b68-ea6f-4fbf-83d8-615815c9d748">
<path transform="translate(0,0)" fill="rgba(253, 253, 253, 1)" d="M 532.923 131.409 C 533.87 131.358 534.818 131.339 535.766 131.35 C 663.998 133.304 658.451 335.925 535.351 333.4 C 509.335 332.866 495.261 325.075 477.58 306.655 C 476.829 319.837 477.151 333.986 477.242 347.268 C 479.071 362.258 478.401 387.639 477.961 403.007 C 464.603 403.381 447.957 404.156 434.964 401.753 L 435.31 135.937 L 476.927 135.94 C 476.979 144.67 476.909 151.473 478.211 160.191 C 494.486 140.836 507.496 134.144 532.923 131.409 z M 540.001 293.73 C 606.391 279.962 602.004 166.829 525.67 171.345 C 452.247 182.398 465.325 304.147 540.001 293.73 z"/>
<path transform="translate(0,0)" fill="rgba(253, 253, 253, 1)" d="M 752.249 131.338 C 753.693 131.254 755.14 131.222 756.586 131.242 C 878.924 132.901 877.399 334.217 755.762 333.324 C 729.184 333.129 714.82 323.041 696.903 304.607 C 696.024 316.699 696.402 333.077 696.358 345.5 L 696.135 403.143 L 654.787 403.131 C 653.278 365.15 654.538 317.756 654.51 279.099 L 653.158 135.927 L 693.463 135.932 C 693.39 144.389 693.806 152.899 694.141 161.354 C 697.378 158.439 700.647 154.343 704.19 151.148 C 719.166 137.639 732.837 133.776 752.249 131.338 z M 759.641 293.421 C 812.905 278.663 820.549 206.33 775.959 176.82 C 766.726 170.71 753.342 170.393 742.476 171.269 C 670.247 185.132 684.593 304.559 759.641 293.421 z"/>
<path transform="translate(0,0)" fill="rgba(253, 253, 253, 1)" d="M 1422.25 132.805 C 1477.2 126.985 1526.52 166.656 1532.62 221.574 C 1538.72 276.492 1499.3 326.018 1444.42 332.396 C 1389.13 338.819 1339.17 299.053 1333.03 243.739 C 1326.89 188.425 1366.91 138.667 1422.25 132.805 z M 1443.76 293.546 C 1509.5 275.666 1504.12 166.838 1424.66 171.314 C 1350.87 183.711 1366.42 307.044 1441.35 293.99 C 1442.15 293.849 1442.96 293.702 1443.76 293.546 z"/>
<path transform="translate(0,0)" fill="rgba(253, 253, 253, 1)" d="M 1530.67 136.013 C 1544.31 135.685 1559.09 135.954 1572.82 135.935 C 1577.76 147.522 1582.46 167.617 1586.07 180.617 C 1595.15 213.317 1603.27 244.328 1613.95 276.641 L 1653.86 136.02 L 1691.47 136.114 C 1706.03 181.907 1718.13 229.454 1732.43 274.568 L 1733.48 275.015 C 1735.31 272.149 1771.43 145.127 1773.67 136.004 C 1787.94 135.958 1802.22 136.062 1816.5 136.315 C 1812.19 148.731 1808.17 162.147 1804.17 174.733 C 1798.88 194.566 1788.13 223.06 1781.62 244.279 L 1765.86 296.435 C 1762.72 306.905 1759.17 320.415 1754.72 330.146 L 1714.82 329.971 C 1711.11 321.99 1706.29 304.057 1703.64 294.964 L 1685.59 231.651 C 1682.74 221.562 1678.41 204.529 1673.18 195.781 C 1666.38 213.192 1659.39 238.344 1653.96 256.687 L 1632.02 330.029 L 1590.19 330.1 L 1530.67 136.013 z"/>
<path transform="translate(0,0)" fill="rgba(253, 253, 253, 1)" d="M 314.207 131.378 C 315.335 131.313 316.464 131.281 317.594 131.282 C 340.452 131.263 365.475 135.923 382.39 152.517 C 405.547 175.236 400.784 212.958 400.806 243.027 L 400.847 330.09 L 360.115 330.036 L 359.959 309.9 C 335.911 333.147 302.522 339.411 270.417 328.112 C 253.063 322.004 243.544 310.954 236.203 294.279 C 235.581 292.608 235.033 290.909 234.563 289.188 C 230.862 275.208 233.573 258.326 240.732 246.105 C 255.328 221.19 287.043 216.661 313.314 216.374 C 322.647 215.724 332.813 216.222 341.885 213.9 C 368.199 207.196 361.033 181.826 341.304 171.581 C 327.206 164.26 310.201 165.565 297.131 174.44 C 289.924 179.335 286.813 184.504 282.892 192.03 C 269.987 191.593 255.561 191.875 242.541 191.852 C 245.41 152.324 278.461 135.052 314.207 131.378 z M 285.39 291.757 C 307.341 304.12 341.747 296.438 354.742 274.176 C 360.271 264.703 359.93 250.927 359.648 240.104 L 358.836 239.076 C 332.241 257.543 286.546 238.52 277.537 269.058 C 276.26 273.388 277.6 283.039 280.837 286.754 C 282.348 288.487 283.597 290 285.39 291.757 z"/>
<path transform="translate(0,0)" fill="rgba(253, 253, 253, 1)" d="M 931.628 136.056 C 945.995 135.672 961.79 135.971 976.274 135.94 C 976.964 137.374 977.713 138.935 978.289 140.414 C 995.623 184.905 1009.69 231.429 1028.29 275.328 C 1032.79 260.702 1039.51 243.452 1044.6 228.744 C 1055.25 197.894 1065.7 166.976 1075.96 135.994 C 1090.73 135.945 1105.51 136.047 1120.28 136.299 C 1103.94 178.619 1085.98 224.497 1071.06 267.299 C 1064.29 284.905 1057.72 302.585 1051.35 320.337 C 1032.26 373.151 1024.05 413.724 958.059 403.148 C 957.681 392.042 957.999 379.183 958.019 367.946 C 989.572 368.06 999.767 357.336 1007.82 327.71 C 997.443 307.2 986.749 274.192 978.227 252.5 C 962.933 213.576 946.894 174.945 931.628 136.056 z"/>
<path transform="translate(0,0)" fill="rgba(253, 253, 253, 1)" d="M 1217.56 55.3116 C 1228.34 54.7255 1236.53 55.6303 1247.15 57.2804 C 1247.24 68.8047 1247.21 80.3298 1247.07 91.8536 C 1209.37 87.9005 1202.05 102.018 1203.07 137.185 C 1216.68 137.572 1231.99 137.216 1245.74 137.21 C 1247.18 149.518 1246.99 160.818 1246.99 173.166 C 1233.38 173.117 1216.28 172.771 1203 173.995 C 1202.12 225.048 1202.93 278.609 1202.96 329.792 C 1199.65 330.631 1167.41 330.188 1161.66 330.143 C 1159.94 310.701 1161.84 288.318 1161.67 268.742 L 1161.05 206.933 C 1161.05 196.545 1160.69 183.527 1161.93 173.521 C 1152.35 173.017 1140.06 173.286 1130.26 173.269 C 1130.86 136.399 1123.18 137.989 1161.02 137.054 C 1160.78 92.4753 1168.49 62.1688 1217.56 55.3116 z"/>
<path transform="translate(0,0)" fill="rgba(253, 253, 253, 1)" d="M 1268.57 53.8852 C 1283.01 53.7128 1295.26 54.4334 1309.69 55.0683 L 1309.56 329.598 C 1306.23 330.696 1273.32 330.202 1267.89 330.145 C 1267.29 269.757 1267.89 208.552 1267.9 148.099 L 1267.83 89.7785 C 1267.81 79.2896 1267.41 63.8795 1268.57 53.8852 z"/>
<path transform="translate(0,0)" fill="rgba(253, 253, 253, 1)" d="M 872.682 55.0255 L 914.634 55.0303 C 914.036 77.1956 914.548 100.08 914.299 122.361 L 913.162 330.174 L 872.67 330.159 L 872.682 55.0255 z"/>
</g></svg></svg><svg x="372" y="334" width="282" height="203" xmlns="http://www.w3.org/2000/svg" preserveAspectRatio="none"><svg version="1.1" xmlns="http://www.w3.org/2000/svg" style="display: block;" width="282" height="203" viewBox="-2.30 -0.66 2052.71 1477.66" preserveAspectRatio="none"><g id="svg-group-aa6a07ee-8e92-4d1a-b020-8fb18ea6dc00">
<defs>
	<linearGradient id="Gradient1" gradientUnits="userSpaceOnUse" x1="416.986" y1="836.617" x2="802.631" y2="190.794">
		<stop class="stop0" offset="0" stop-opacity="1" stop-color="rgba(97, 205, 236, 1)"/>
		<stop class="stop1" offset="1" stop-opacity="1" stop-color="rgba(148, 187, 245, 1)"/>
	</linearGradient>
</defs>
<path transform="translate(0,0)" fill="rgba(101, 158, 241, 1)" d="M 812.57 180.409 C 818.379 167.652 820.972 153.603 826.53 140.674 C 846.554 94.0889 882.201 51.8419 927.31 28.1031 C 977.256 1.81903 1039.03 -0.662955 1092.44 15.9814 C 1155.57 35.6512 1194.65 77.8437 1224.5 134.916 C 1271.8 184.526 1298.7 208.345 1357.81 243.489 C 1452.84 299.988 1553.2 326.493 1661.58 344.253 C 1705.54 351.457 1750.95 354.439 1795.4 360.861 C 1814.35 360.788 1844.43 359.803 1862.26 361.753 C 1906.5 366.593 1950.26 385.682 1981.87 417.271 C 2023.81 459.186 2046.58 511.931 2046.47 571.097 C 2046.12 623.667 2025.08 673.986 1987.91 711.163 C 1947.09 751.56 1898.38 771.378 1841.54 775.051 C 1822.72 779.827 1803.06 782.66 1784.26 786.872 C 1756.82 793.017 1726.46 799.669 1699.65 807.545 C 1557.75 849.235 1420.76 932.091 1338.21 1057.36 C 1333.64 1064.3 1325.09 1075.93 1321.35 1082.85 C 1295.68 1130.31 1272.46 1179.49 1255.27 1230.69 C 1249.53 1247.77 1245.75 1267.21 1240.28 1284.55 C 1236.36 1297.96 1233.59 1312.88 1228.89 1325.87 C 1198.31 1410.39 1134.1 1465.64 1043.94 1477 L 1000.06 1477 C 946.188 1468.66 894.257 1441.86 860.364 1398.41 C 848.664 1383.41 837.006 1362.44 827.22 1345.84 C 819.028 1337 810.943 1324.69 803.831 1314.9 C 670.437 1131.21 453.182 1037.24 233.393 1008.19 C 222.397 1006.74 209.67 1008.47 198.941 1005.91 C 157.969 1005.89 98.5261 977.879 67.754 949.182 C 27.538 914.344 5.93792 859.417 4.20606 807 C 1.53092 726.034 44.9329 653.257 116.19 615.226 C 153.627 595.246 185.181 591.223 227.575 590.039 C 239.26 586.754 282.211 581.351 297.156 578.899 C 331.519 572.919 365.459 564.725 398.765 554.368 C 429.481 544.73 459.364 535.291 487.881 520.441 C 497.757 515.299 508.773 512.092 518.887 506.616 C 615.389 454.368 700.719 384.161 756.681 288.445 C 776.868 253.918 793.781 216.291 812.57 180.409 z M 791.494 490.823 C 759.787 517.334 733.859 544.116 713.805 580.507 C 656.208 685.02 655.289 799.512 713.809 903.897 C 768.114 1000.77 861.562 1047.47 970.049 1060.11 C 975.241 1060.7 980.728 1061.15 985.881 1062.04 C 995.896 1062.6 1005.73 1058.41 1015.23 1058.92 C 1109.48 1064.04 1204.85 1025.71 1280.96 972.306 C 1289.99 965.971 1298.57 954.311 1307.94 946.784 L 1308.77 946.128 C 1316.96 937.541 1324.08 924.937 1330.34 914.823 C 1389.1 819.906 1389.96 691.365 1335.91 594.257 C 1324.55 573.861 1308.63 551.553 1293.15 533.757 C 1233.72 466.494 1149.95 425.668 1060.35 420.3 C 1050.83 422.136 1048.02 418.378 1036.92 419.029 C 956.917 419.047 908.59 429.608 834.878 465.159 C 824.641 470.097 799.511 483.141 791.494 490.823 z"/>
<path transform="translate(0,0)" fill="rgba(101, 158, 241, 1)" d="M 1224.5 134.916 C 1271.8 184.526 1298.7 208.345 1357.81 243.489 C 1452.84 299.988 1553.2 326.493 1661.58 344.253 C 1705.54 351.457 1750.95 354.439 1795.4 360.861 C 1814.35 360.788 1844.43 359.803 1862.26 361.753 C 1906.5 366.593 1950.26 385.682 1981.87 417.271 C 2023.81 459.186 2046.58 511.931 2046.47 571.097 C 2046.12 623.667 2025.08 673.986 1987.91 711.163 C 1947.09 751.56 1898.38 771.378 1841.54 775.051 C 1822.72 779.827 1803.06 782.66 1784.26 786.872 C 1756.82 793.017 1726.46 799.669 1699.65 807.545 C 1557.75 849.235 1420.76 932.091 1338.21 1057.36 C 1333.64 1064.3 1325.09 1075.93 1321.35 1082.85 C 1295.68 1130.31 1272.46 1179.49 1255.27 1230.69 C 1249.53 1247.77 1245.75 1267.21 1240.28 1284.55 C 1236.36 1297.96 1233.59 1312.88 1228.89 1325.87 C 1198.31 1410.39 1134.1 1465.64 1043.94 1477 L 1000.06 1477 C 946.188 1468.66 894.257 1441.86 860.364 1398.41 C 848.664 1383.41 837.006 1362.44 827.22 1345.84 C 826.513 1336.52 821.485 1325.85 819.634 1316.51 C 800.731 1221.17 854.778 1116 945.908 1079.96 C 962.759 1073.29 979.007 1069.55 996.547 1065.29 C 992.688 1063.58 989.937 1063.04 985.881 1062.04 C 995.896 1062.6 1005.73 1058.41 1015.23 1058.92 C 1109.48 1064.04 1204.85 1025.71 1280.96 972.306 C 1289.99 965.971 1298.57 954.311 1307.94 946.784 L 1308.77 946.128 C 1316.96 937.541 1324.08 924.937 1330.34 914.823 C 1389.1 819.906 1389.96 691.365 1335.91 594.257 C 1324.55 573.861 1308.63 551.553 1293.15 533.757 C 1233.72 466.494 1149.95 425.668 1060.35 420.3 C 1050.83 422.136 1048.02 418.378 1036.92 419.029 L 1036.47 417.798 C 1072.57 415.154 1091.47 409.137 1124.12 393.523 C 1158.17 373.167 1181.71 353.907 1204.03 320.643 C 1235.23 274.13 1241.88 227.502 1233.32 172.579 C 1231.2 158.96 1227.24 147.964 1224.5 134.916 z"/>
<path transform="translate(0,0)" fill="rgba(0, 0, 0, 1)" d="M 1224.5 134.916 C 1271.8 184.526 1298.7 208.345 1357.81 243.489 C 1452.84 299.988 1553.2 326.493 1661.58 344.253 C 1705.54 351.457 1750.95 354.439 1795.4 360.861 C 1778.5 365.746 1761.3 370.215 1745.54 378.191 C 1683.89 409.381 1639.15 464.321 1625.03 531.913 C 1615.98 536.665 1598.02 579.722 1592.46 591.604 C 1584.56 608.203 1576.08 624.519 1567.04 640.52 C 1540.37 688.509 1515.16 727.515 1484.61 772.382 C 1443.82 832.301 1401.55 878.32 1346.56 925.539 C 1339.97 931.193 1314.92 957.026 1307.49 954.272 C 1307.27 953.148 1307.02 951.272 1306.52 950.355 L 1308.77 946.128 C 1316.96 937.541 1324.08 924.937 1330.34 914.823 C 1389.1 819.906 1389.96 691.365 1335.91 594.257 C 1324.55 573.861 1308.63 551.553 1293.15 533.757 C 1233.72 466.494 1149.95 425.668 1060.35 420.3 C 1050.83 422.136 1048.02 418.378 1036.92 419.029 L 1036.47 417.798 C 1072.57 415.154 1091.47 409.137 1124.12 393.523 C 1158.17 373.167 1181.71 353.907 1204.03 320.643 C 1235.23 274.13 1241.88 227.502 1233.32 172.579 C 1231.2 158.96 1227.24 147.964 1224.5 134.916 z"/>
<path transform="translate(0,0)" fill="rgba(0, 0, 0, 1)" d="M 1124.12 393.523 C 1126.39 393.221 1127.42 392.999 1129.75 393.208 C 1128.1 393.995 1122.17 396.828 1121.65 397.625 C 1115.81 406.659 1113.46 407.016 1103.02 409.368 C 1097.68 410.573 1090.52 412.726 1084.85 412.99 C 1082.66 413.184 1081.42 412.582 1080.67 414.308 C 1083.97 417 1085.75 418.048 1089.32 420.155 C 1081.8 421.01 1066.16 417.703 1060.35 420.3 C 1050.83 422.136 1048.02 418.378 1036.92 419.029 L 1036.47 417.798 C 1072.57 415.154 1091.47 409.137 1124.12 393.523 z"/>
<path transform="translate(0,0)" fill="rgba(101, 158, 241, 1)" d="M 1795.4 360.861 C 1814.35 360.788 1844.43 359.803 1862.26 361.753 C 1906.5 366.593 1950.26 385.682 1981.87 417.271 C 2023.81 459.186 2046.58 511.931 2046.47 571.097 C 2046.12 623.667 2025.08 673.986 1987.91 711.163 C 1947.09 751.56 1898.38 771.378 1841.54 775.051 C 1836.73 775.201 1828.5 772.502 1822.52 772.038 C 1768.49 767.846 1717.78 744.271 1680.66 704.518 C 1634.12 654.677 1621.86 598.645 1625.03 531.913 C 1639.15 464.321 1683.89 409.381 1745.54 378.191 C 1761.3 370.215 1778.5 365.746 1795.4 360.861 z"/>
<path transform="translate(0,0)" fill="rgba(254, 254, 254, 1)" d="M 1625.03 531.913 C 1621.86 598.645 1634.12 654.677 1680.66 704.518 C 1717.78 744.271 1768.49 767.846 1822.52 772.038 C 1828.5 772.502 1836.73 775.201 1841.54 775.051 C 1822.72 779.827 1803.06 782.66 1784.26 786.872 C 1756.82 793.017 1726.46 799.669 1699.65 807.545 C 1557.75 849.235 1420.76 932.091 1338.21 1057.36 C 1333.64 1064.3 1325.09 1075.93 1321.35 1082.85 C 1295.68 1130.31 1272.46 1179.49 1255.27 1230.69 C 1249.53 1247.77 1245.75 1267.21 1240.28 1284.55 C 1239.98 1282.02 1239.64 1280.97 1239.12 1278.63 C 1236.64 1267.58 1237.48 1255.19 1235.49 1243.62 C 1228.67 1201.77 1209.44 1162.94 1180.3 1132.14 C 1147.57 1097.25 1095.75 1070.16 1047.8 1064.03 C 1041.34 1063.2 1021.4 1064.11 1012.67 1063.84 C 1006.73 1064.11 1002.38 1064.22 996.547 1065.29 C 992.688 1063.58 989.937 1063.04 985.881 1062.04 C 995.896 1062.6 1005.73 1058.41 1015.23 1058.92 C 1109.48 1064.04 1204.85 1025.71 1280.96 972.306 C 1289.99 965.971 1298.57 954.311 1307.94 946.784 L 1308.77 946.128 L 1306.52 950.355 C 1307.02 951.272 1307.27 953.148 1307.49 954.272 C 1314.92 957.026 1339.97 931.193 1346.56 925.539 C 1401.55 878.32 1443.82 832.301 1484.61 772.382 C 1515.16 727.515 1540.37 688.509 1567.04 640.52 C 1576.08 624.519 1584.56 608.203 1592.46 591.604 C 1598.02 579.722 1615.98 536.665 1625.03 531.913 z"/>
<path transform="translate(0,0)" fill="rgba(0, 0, 0, 1)" d="M 985.881 1062.04 C 995.896 1062.6 1005.73 1058.41 1015.23 1058.92 C 1109.48 1064.04 1204.85 1025.71 1280.96 972.306 C 1289.99 965.971 1298.57 954.311 1307.94 946.784 L 1308.77 946.128 L 1306.52 950.355 C 1253.22 1009.79 1126.1 1058.91 1046.43 1062.67 C 1037.53 1063.09 1020.58 1062.57 1012.67 1063.84 C 1006.73 1064.11 1002.38 1064.22 996.547 1065.29 C 992.688 1063.58 989.937 1063.04 985.881 1062.04 z"/>
<path transform="translate(0,0)" fill="rgba(0, 0, 0, 1)" d="M 423.098 842.917 C 424.58 842.639 428.892 841.902 429.65 840.953 C 454.234 810.176 482.124 758.313 503.872 728.382 C 567.692 640.546 637.064 556.654 735.771 507.312 C 749.076 500.661 765.897 490.726 780.359 487.608 C 785.881 486.418 787.724 488.04 791.494 490.823 C 759.787 517.334 733.859 544.116 713.805 580.507 C 656.208 685.02 655.289 799.512 713.809 903.897 C 768.114 1000.77 861.562 1047.47 970.049 1060.11 C 975.241 1060.7 980.728 1061.15 985.881 1062.04 C 989.937 1063.04 992.688 1063.58 996.547 1065.29 C 979.007 1069.55 962.759 1073.29 945.908 1079.96 C 854.778 1116 800.731 1221.17 819.634 1316.51 C 821.485 1325.85 826.513 1336.52 827.22 1345.84 C 819.028 1337 810.943 1324.69 803.831 1314.9 C 670.437 1131.21 453.182 1037.24 233.393 1008.19 C 222.397 1006.74 209.67 1008.47 198.941 1005.91 C 207.173 1005.25 218.898 1006.28 228.401 1005.73 C 261.909 1003.73 294.369 993.292 322.768 975.395 C 369.652 946.328 410.455 897.278 423.098 842.917 z"/>
<path transform="translate(0,0)" fill="rgba(101, 158, 241, 1)" d="M 198.941 1005.91 C 157.969 1005.89 98.5261 977.879 67.754 949.182 C 27.538 914.344 5.93792 859.417 4.20606 807 C 1.53092 726.034 44.9329 653.257 116.19 615.226 C 153.627 595.246 185.181 591.223 227.575 590.039 C 235.596 590.484 239.09 591.789 246.803 593.097 C 295.907 601.088 340.705 625.903 373.524 663.293 C 411.629 706.023 428.95 763.004 425.647 819.776 C 425.121 827.522 424.271 835.243 423.098 842.917 C 410.455 897.278 369.652 946.328 322.768 975.395 C 294.369 993.292 261.909 1003.73 228.401 1005.73 C 218.898 1006.28 207.173 1005.25 198.941 1005.91 z"/>
<path transform="translate(0,0)" fill="url(#Gradient1)" d="M 812.57 180.409 C 812.692 180.658 812.822 180.903 812.936 181.156 C 815.429 186.688 812.963 221.234 814.007 232.606 C 821.237 311.341 877.037 375.807 948.794 404.859 C 967.365 412.377 989.01 416.826 1009.06 417.598 C 1018.16 417.948 1027.43 417.143 1036.47 417.798 L 1036.92 419.029 C 956.917 419.047 908.59 429.608 834.878 465.159 C 824.641 470.097 799.511 483.141 791.494 490.823 C 787.724 488.04 785.881 486.418 780.359 487.608 C 765.897 490.726 749.076 500.661 735.771 507.312 C 637.064 556.654 567.692 640.546 503.872 728.382 C 482.124 758.313 454.234 810.176 429.65 840.953 C 428.892 841.902 424.58 842.639 423.098 842.917 C 424.271 835.243 425.121 827.522 425.647 819.776 C 428.95 763.004 411.629 706.023 373.524 663.293 C 340.705 625.903 295.907 601.088 246.803 593.097 C 239.09 591.789 235.596 590.484 227.575 590.039 C 239.26 586.754 282.211 581.351 297.156 578.899 C 331.519 572.919 365.459 564.725 398.765 554.368 C 429.481 544.73 459.364 535.291 487.881 520.441 C 497.757 515.299 508.773 512.092 518.887 506.616 C 615.389 454.368 700.719 384.161 756.681 288.445 C 776.868 253.918 793.781 216.291 812.57 180.409 z"/>
</g></svg></svg></svg>